<?xml version="1.0" standalone="no"?>
<!DOCTYPE svg PUBLIC "-//W3C//DTD SVG 20010904//EN"
 "http://www.w3.org/TR/2001/REC-SVG-20010904/DTD/svg10.dtd">
<svg version="1.0" xmlns="http://www.w3.org/2000/svg"
 width="1920.000000pt" height="1080.000000pt" viewBox="0 0 1920.000000 1080.000000"
 preserveAspectRatio="xMidYMid meet">

<g transform="translate(0.000000,1080.000000) scale(0.100000,-0.100000)"
fill="#000000" stroke="none">
<path d="M9510 7829 c-559 -61 -1074 -306 -1470 -700 -384 -381 -625 -873
-701 -1429 -17 -122 -17 -478 0 -600 99 -727 479 -1338 1079 -1737 424 -281
908 -417 1427 -400 368 12 661 85 990 246 270 133 490 293 693 506 92 96 252
295 252 313 0 10 -568 577 -572 572 -155 -235 -232 -330 -361 -441 -222 -193
-488 -323 -780 -381 -146 -29 -442 -32 -582 -6 -519 98 -957 421 -1189 878
-245 483 -245 1017 0 1500 232 457 670 780 1189 878 140 26 436 23 582 -6 258
-52 522 -172 721 -330 l23 -18 -361 -359 c-198 -198 -362 -361 -364 -363 -2
-1 -27 9 -57 23 -90 41 -188 58 -303 52 -166 -9 -296 -67 -411 -182 -326 -328
-199 -887 237 -1043 57 -20 97 -27 183 -30 136 -5 216 12 329 70 79 40 105 65
950 909 l869 867 -75 113 c-250 380 -570 662 -973 860 -235 115 -451 183 -710
224 -120 19 -492 28 -615 14z"/>
</g>
</svg>
